<svg id="Camada_1" data-name="Camada 1" xmlns="http://www.w3.org/2000/svg" viewBox="0 0 204.2 218.31"><defs><style>.cls-1{fill:#515253;}</style></defs><path class="cls-1" d="M146.92,141.53c-2.81,11,6.51,20.92,17.75,19.42,3.06-.41,6.11.36,9.12,3.84,10.85,12.57,12.57,56,0,77.14s-20-2.29-33.15-10.86-1.71,12.57-14.85,22.29S92.64,238.5,90.93,216.79s4.55-35.59,3.86-46.65c-.72-11.35-19.86-15.64-21.58-29.93s1.72-36.57,38.86-53.71,37.72,20,37.72,36A80.33,80.33,0,0,1,146.92,141.53Z" transform="translate(-72.87 -82.08)"/><path class="cls-1" d="M248.64,156.21c31.43,0,31.43,30,25.15,37.72-5.13,6.29-11.43,29.14-42.29,18.28s-17.14-45.71-4-50.85S248.64,156.21,248.64,156.21Z" transform="translate(-72.87 -82.08)"/><path class="cls-1" d="M245.76,253.87c14.14,33.22-22.62,48.86-34.9,46.24-10-2.14-40.84,3.11-41.42-35.17s48.29-42,60.5-30.75S245.76,253.87,245.76,253.87Z" transform="translate(-72.87 -82.08)"/></svg>